<svg xmlns="http://www.w3.org/2000/svg" viewBox="0 0 416.29 78.49"><defs><style>.cls-1{fill:#fff;}.cls-2,.cls-3{fill:none;stroke:#fff;stroke-miterlimit:10;}.cls-2{stroke-width:3px;}.cls-3{stroke-width:4px;}</style></defs><g id="Ebene_2" data-name="Ebene 2"><g id="Ebene_1-2" data-name="Ebene 1"><path class="cls-1" d="M78.6,2.38A1.61,1.61,0,0,1,79,1.23a1.41,1.41,0,0,1,1-.46h33.49a1.54,1.54,0,0,1,1.21.45,1.79,1.79,0,0,1,.4,1.23V11.1a1.8,1.8,0,0,1-.42,1.13,1.43,1.43,0,0,1-1.22.54H92.15V23.62h15.71A1.76,1.76,0,0,1,109,24a1.45,1.45,0,0,1,.46,1.18v8.36a1.88,1.88,0,0,1-.41,1.14,1.28,1.28,0,0,1-1.1.54H92.15v16c0,1-.54,1.51-1.61,1.51H79.86a1.33,1.33,0,0,1-1.26-1.48Z"/><path class="cls-1" d="M133.13,2.14a1.1,1.1,0,0,1,.23-.46,2.89,2.89,0,0,1,.47-.45,2.25,2.25,0,0,1,.6-.34A1.68,1.68,0,0,1,135,.77h9a1.47,1.47,0,0,1,1,.37,4.12,4.12,0,0,1,.63.65l.87,2,18.38,47.39a1,1,0,0,1-.11,1.14,1.7,1.7,0,0,1-1.33.44h-10a2.16,2.16,0,0,1-1.24-.3,1.92,1.92,0,0,1-.69-1c-.46-1.19-.92-2.37-1.36-3.55s-.89-2.36-1.33-3.55H130.19c-.44,1.19-.89,2.37-1.34,3.55s-.91,2.36-1.35,3.55a1.77,1.77,0,0,1-1.79,1.3H115.39a1.7,1.7,0,0,1-1.1-.35.82.82,0,0,1-.16-1Zm6.37,15c-.44,1.19-.89,2.47-1.34,3.85s-.91,2.76-1.35,4.16-.89,2.78-1.35,4.15-.9,2.64-1.35,3.83h10.75Z"/><path class="cls-1" d="M206.88,4.55a2.17,2.17,0,0,1,.87.91,1.45,1.45,0,0,1-.1,1.33l-5.92,8.4a1.35,1.35,0,0,1-.82.68,1.57,1.57,0,0,1-1.07-.29,13.17,13.17,0,0,0-3.78-2,13.39,13.39,0,0,0-4.37-.7,12.7,12.7,0,0,0-9.45,4.06,13.64,13.64,0,0,0-2.73,4.41,15.26,15.26,0,0,0,0,10.76,13.51,13.51,0,0,0,2.73,4.38,12.69,12.69,0,0,0,9.45,4,13.62,13.62,0,0,0,8.22-2.73,1.57,1.57,0,0,1,1.05-.31,1.38,1.38,0,0,1,.84.63l6,8.61a1.37,1.37,0,0,1,.1,1.29,2.29,2.29,0,0,1-.87.88,28.1,28.1,0,0,1-7.09,3.41,26.81,26.81,0,0,1-21.51-2.43,27.16,27.16,0,0,1-9.59-9.58,26.93,26.93,0,0,1-2.69-20.61A26.86,26.86,0,0,1,173,7.84a26.35,26.35,0,0,1,5.41-4.18A27,27,0,0,1,184.81,1a27.18,27.18,0,0,1,15.05.21A27.37,27.37,0,0,1,206.88,4.55Z"/><path class="cls-1" d="M216.54,2.38a1.65,1.65,0,0,1,.4-1.17,1.46,1.46,0,0,1,1.13-.44H252.8a1.55,1.55,0,0,1,1.19.45,1.75,1.75,0,0,1,.42,1.23V11.1a1.8,1.8,0,0,1-.42,1.13,1.44,1.44,0,0,1-1.23.54H230.08v8.69h17.5a1.83,1.83,0,0,1,1.1.31,1.19,1.19,0,0,1,.44,1.05v7.56a1.5,1.5,0,0,1-.38.95,1.4,1.4,0,0,1-1.12.45H230.08v9H253.6a1.41,1.41,0,0,1,1.58,1.61v8.79a.91.91,0,0,1-.28.63c-.1.65-.58,1-1.44,1H218.07a1.63,1.63,0,0,1-1.11-.37,1.45,1.45,0,0,1-.42-1.14Z"/><path class="cls-1" d="M303.44,4.55a2.2,2.2,0,0,1,.88.91,1.46,1.46,0,0,1-.11,1.33l-5.91,8.4a1.39,1.39,0,0,1-.83.68,1.54,1.54,0,0,1-1.06-.29,13.33,13.33,0,0,0-8.16-2.7,12.75,12.75,0,0,0-9.45,4.06,13.64,13.64,0,0,0-2.73,4.41,15.26,15.26,0,0,0,0,10.76,13.51,13.51,0,0,0,2.73,4.38,13,13,0,0,0,4.17,3,12.79,12.79,0,0,0,5.28,1.08,13.5,13.5,0,0,0,4.41-.72,13.8,13.8,0,0,0,3.82-2,1.57,1.57,0,0,1,1-.31,1.38,1.38,0,0,1,.84.63l6,8.61a1.38,1.38,0,0,1,.11,1.29,2.32,2.32,0,0,1-.88.88,27.94,27.94,0,0,1-7.09,3.41,26.33,26.33,0,0,1-8,1.21A26.56,26.56,0,0,1,275,49.88a27.16,27.16,0,0,1-9.59-9.58,25.93,25.93,0,0,1-2.7-6.37,26.82,26.82,0,0,1,2.7-20.65,27,27,0,0,1,4.18-5.44A25.82,25.82,0,0,1,275,3.66,27.14,27.14,0,0,1,281.37,1a27.18,27.18,0,0,1,15.05.21A27.05,27.05,0,0,1,303.44,4.55Z"/><path class="cls-1" d="M307.61,26.81a26.51,26.51,0,0,1,3.64-13.53,27.34,27.34,0,0,1,4.18-5.44,26.35,26.35,0,0,1,5.41-4.18,27.29,27.29,0,0,1,6.4-2.7,26.85,26.85,0,0,1,14.23,0,27,27,0,0,1,6.41,2.7,26.62,26.62,0,0,1,9.62,9.62,28,28,0,0,1,2.69,6.41,26.62,26.62,0,0,1,0,14.24,27.1,27.1,0,0,1-2.69,6.37,26.28,26.28,0,0,1-4.19,5.39,27.32,27.32,0,0,1-5.43,4.19,27,27,0,0,1-20.64,2.69,26.84,26.84,0,0,1-6.4-2.69,27.16,27.16,0,0,1-9.59-9.58,25.93,25.93,0,0,1-2.7-6.37A26.54,26.54,0,0,1,307.61,26.81Zm13.54,0a14.92,14.92,0,0,0,1,5.43,13.47,13.47,0,0,0,2.74,4.39,12.76,12.76,0,0,0,4.18,2.94,13.76,13.76,0,0,0,10.64,0,12.74,12.74,0,0,0,4.2-2.94,13.3,13.3,0,0,0,2.74-4.39,15.45,15.45,0,0,0,0-10.83,13.49,13.49,0,0,0-2.74-4.43,13.06,13.06,0,0,0-19,0,13.65,13.65,0,0,0-2.74,4.43A14.91,14.91,0,0,0,321.15,26.77Z"/><path class="cls-1" d="M369.84,2.31a1.59,1.59,0,0,1,.38-1.08,1.42,1.42,0,0,1,1.16-.46h11.44a2.32,2.32,0,0,1,1,.25,2.23,2.23,0,0,1,.91.83Q389.19,9,393.57,16t8.85,14.14V2.1a1.68,1.68,0,0,1,.56-1,1.51,1.51,0,0,1,1-.35h10a1.85,1.85,0,0,1,1.22.4,1.39,1.39,0,0,1,.49,1.14V51.38a1.22,1.22,0,0,1-.42,1,1.81,1.81,0,0,1-1.15.34H402.91a1.16,1.16,0,0,1-.8-.32,5.37,5.37,0,0,1-.74-.84l-9.2-15.22q-4.56-7.53-9.24-15.23V51.21a1.35,1.35,0,0,1-1.61,1.54h-9.94a1.47,1.47,0,0,1-1.18-.44,1.63,1.63,0,0,1-.36-1.07Z"/><path class="cls-2" d="M39.24,23.57a1,1,0,0,1-.48-.69c-1.37-6.56-6-11.15-11.38-11.15S17.38,16.32,16,22.88a1.08,1.08,0,0,1-.48.69,4.15,4.15,0,0,0-1,3.16,4.16,4.16,0,0,0,1,3.17,1.08,1.08,0,0,1,.48.69c1.37,6.56,6,11.14,11.37,11.14s10-4.58,11.38-11.14a1,1,0,0,1,.48-.69,4.16,4.16,0,0,0,1-3.17A4.15,4.15,0,0,0,39.24,23.57Z"/><polyline class="cls-3" points="52.77 39.42 52.77 51.1 40.97 51.1"/><polyline class="cls-3" points="41.03 2.37 52.71 2.37 52.71 14.16"/><polyline class="cls-3" points="2 14.04 2 2.37 13.8 2.37"/><polyline class="cls-3" points="13.74 51.1 2.06 51.1 2.06 39.31"/><path class="cls-1" d="M.5,66.5a.41.41,0,0,1,.1-.32.43.43,0,0,1,.3-.1H2.17a.5.5,0,0,1,.31.1.41.41,0,0,1,.11.32v1.07a.39.39,0,0,1,0,.14.55.55,0,0,1-.08.15.69.69,0,0,1-.13.11.41.41,0,0,1-.18,0H.9c-.27,0-.4-.15-.4-.45Zm0,2.76A.45.45,0,0,1,.6,69a.36.36,0,0,1,.3-.12H2.15a.35.35,0,0,1,.14,0,.55.55,0,0,1,.15.08.76.76,0,0,1,.11.14.33.33,0,0,1,0,.17v6.08a.38.38,0,0,1-.11.31.49.49,0,0,1-.33.11H.9c-.27,0-.4-.14-.4-.42Z"/><path class="cls-1" d="M4,68.93a.34.34,0,0,1,.15-.07l.15,0h.83a.33.33,0,0,1,.17,0,.31.31,0,0,1,.11.09.39.39,0,0,1,.08.14l.06.16.12.47A1.23,1.23,0,0,1,6,69.4a2,2,0,0,1,.45-.33,2.58,2.58,0,0,1,.63-.24,2.75,2.75,0,0,1,.79-.1,2.41,2.41,0,0,1,1.93.89,2.92,2.92,0,0,1,.52,1,3.79,3.79,0,0,1,.18,1.18v3.57a.46.46,0,0,1-.09.31.37.37,0,0,1-.29.11H8.83a.51.51,0,0,1-.32-.08.41.41,0,0,1-.08-.31V71.82a1,1,0,0,0-.11-.44A1.44,1.44,0,0,0,8,71a1.53,1.53,0,0,0-.4-.26,1.13,1.13,0,0,0-.45-.09,1,1,0,0,0-.4.09,1.47,1.47,0,0,0-.37.24,1.48,1.48,0,0,0-.29.37,1.18,1.18,0,0,0-.14.45v3.54a.58.58,0,0,1,0,.19.26.26,0,0,1-.11.14.38.38,0,0,1-.13.06l-.15,0H4.34A.4.4,0,0,1,4,75.64a.41.41,0,0,1-.11-.3v-6.1A.41.41,0,0,1,4,69.05a.27.27,0,0,1,.13-.13Z"/><path class="cls-1" d="M12.2,67.76a.29.29,0,0,1,.11-.26,1.35,1.35,0,0,1,.32-.16l1.23-.43H14a.29.29,0,0,1,.27.11.57.57,0,0,1,.07.31v1.5H15a.41.41,0,0,1,.28.1.39.39,0,0,1,.11.31V70.3a.41.41,0,0,1-.11.33.38.38,0,0,1-.28.11h-.75v4.6a.39.39,0,0,1-.12.31.49.49,0,0,1-.33.11H12.62a.37.37,0,0,1-.42-.42v-4.6h-.56c-.28,0-.42-.15-.42-.44V69.24a.37.37,0,0,1,.42-.41h.56Z"/><path class="cls-1" d="M22.05,74.93a3.82,3.82,0,0,1-1.08.69,3.38,3.38,0,0,1-1.27.25,3.51,3.51,0,0,1-1.41-.28,3.78,3.78,0,0,1-1.17-.75,3.53,3.53,0,0,1-.79-1.14,3.35,3.35,0,0,1-.3-1.42,3.59,3.59,0,0,1,.12-.93,3.87,3.87,0,0,1,.33-.84,3.71,3.71,0,0,1,.53-.72,3.18,3.18,0,0,1,.69-.57,3.78,3.78,0,0,1,.82-.36,3.3,3.3,0,0,1,.95-.13,3.47,3.47,0,0,1,2.36,1,3.48,3.48,0,0,1,.53.67,3.15,3.15,0,0,1,.35.77,3,3,0,0,1,.12.85c0,.19,0,.34,0,.46a.5.5,0,0,1-.08.29.39.39,0,0,1-.26.14,2.26,2.26,0,0,1-.52,0H18a1.43,1.43,0,0,0,.22.59,1.48,1.48,0,0,0,.38.37,1.63,1.63,0,0,0,.47.2,1.88,1.88,0,0,0,.46.06,1.81,1.81,0,0,0,.4,0,2.34,2.34,0,0,0,.4-.11,3,3,0,0,0,.36-.16,1.09,1.09,0,0,0,.26-.19l.15-.1a.2.2,0,0,1,.13,0,.3.3,0,0,1,.15,0l.16.14.58.66a.46.46,0,0,1,.08.13.37.37,0,0,1,0,.11.31.31,0,0,1-.06.19Zm-2.62-4.54a1.15,1.15,0,0,0-.41.08,1.83,1.83,0,0,0-.38.23,1.88,1.88,0,0,0-.31.32,2.06,2.06,0,0,0-.23.37h2.79a3,3,0,0,0-.25-.4,1.77,1.77,0,0,0-.3-.31,1.39,1.39,0,0,0-.4-.21A1.33,1.33,0,0,0,19.43,70.39Z"/><path class="cls-1" d="M24,69.24a.34.34,0,0,1,0-.18.41.41,0,0,1,.1-.13.61.61,0,0,1,.14-.07.39.39,0,0,1,.15,0h.83a.29.29,0,0,1,.22.08.58.58,0,0,1,.13.2,2.33,2.33,0,0,1,.11.28,1.76,1.76,0,0,0,.1.3l.32-.36a3.38,3.38,0,0,1,.35-.31,1.78,1.78,0,0,1,.41-.22,1.5,1.5,0,0,1,.5-.08,2.86,2.86,0,0,1,.53,0,2,2,0,0,1,.43.13,2.74,2.74,0,0,1,.42.21l.44.31a.37.37,0,0,1,.23.32.6.6,0,0,1-.09.28l-.49.84a.43.43,0,0,1-.37.22.6.6,0,0,1-.24-.06,1.58,1.58,0,0,0-.48-.34,1.25,1.25,0,0,0-.56-.12,1,1,0,0,0-.66.23,2.06,2.06,0,0,0-.25.26c-.07.11-.15.22-.22.34v4a.38.38,0,0,1-.44.42H24.39a.37.37,0,0,1-.42-.42Z"/><path class="cls-1" d="M37.2,75.35a.48.48,0,0,1,0,.18.24.24,0,0,1-.11.13.29.29,0,0,1-.14.08l-.14,0H35.7a.45.45,0,0,1-.18,0,.27.27,0,0,1-.12-.09.4.4,0,0,1-.07-.13l-.06-.17-.07-.25a2.46,2.46,0,0,1-.34.29,2.14,2.14,0,0,1-.41.25,2.62,2.62,0,0,1-.49.19,2.35,2.35,0,0,1-.54.06,3.43,3.43,0,0,1-1.8-.48,3.19,3.19,0,0,1-.71-.56,3.31,3.31,0,0,1-.56-.72,3.45,3.45,0,0,1-.35-.86,3.32,3.32,0,0,1-.13-1,3.56,3.56,0,0,1,1-2.54,3.45,3.45,0,0,1,2.51-1,2.48,2.48,0,0,1,.63.07,2.17,2.17,0,0,1,.54.21,2.32,2.32,0,0,1,.44.31,3.14,3.14,0,0,1,.34.4l.16-.5a1.65,1.65,0,0,1,.09-.22.42.42,0,0,1,.07-.12.24.24,0,0,1,.11-.06h1a.39.39,0,0,1,.14,0,.27.27,0,0,1,.14.07.36.36,0,0,1,.11.14.47.47,0,0,1,0,.17Zm-5.37-3a2.15,2.15,0,0,0,.11.68,1.93,1.93,0,0,0,.32.54,1.64,1.64,0,0,0,.5.36,1.54,1.54,0,0,0,.65.13,1.69,1.69,0,0,0,1.22-.49A1.51,1.51,0,0,0,35,73a1.72,1.72,0,0,0,.13-.68,1.65,1.65,0,0,0-.13-.66,1.58,1.58,0,0,0-.36-.56,1.75,1.75,0,0,0-.54-.38,1.72,1.72,0,0,0-.68-.14,1.55,1.55,0,0,0-.65.14,1.7,1.7,0,0,0-.5.38,2,2,0,0,0-.32.56A2.08,2.08,0,0,0,31.83,72.3Z"/><path class="cls-1" d="M42.94,73.63a.37.37,0,0,1,.14-.07l.11,0a.47.47,0,0,1,.17,0,.53.53,0,0,1,.16.17l.61.92,0,.1a.13.13,0,0,1,0,.08.3.3,0,0,1-.07.21,1.24,1.24,0,0,1-.18.14,4.44,4.44,0,0,1-1,.5,3.52,3.52,0,0,1-1.13.18,3.75,3.75,0,0,1-1-.12,3.57,3.57,0,0,1-1.56-.92,3,3,0,0,1-.56-.72,3.89,3.89,0,0,1-.36-.86,3.71,3.71,0,0,1-.12-1,3.83,3.83,0,0,1,.12-1,3.89,3.89,0,0,1,.36-.86,3.49,3.49,0,0,1,.56-.72,3.44,3.44,0,0,1,.72-.55,3.49,3.49,0,0,1,.84-.36,3.75,3.75,0,0,1,1-.12,3.52,3.52,0,0,1,1.1.16,3.42,3.42,0,0,1,.94.46h0a.6.6,0,0,1,.19.16.4.4,0,0,1,.07.24.32.32,0,0,1-.07.2l-.48.83a.45.45,0,0,1-.37.26l-.12,0-.16-.09a2.81,2.81,0,0,0-.52-.26,1.81,1.81,0,0,0-.58-.1,1.46,1.46,0,0,0-.63.14,1.58,1.58,0,0,0-.5.38,2,2,0,0,0-.32.56,2.08,2.08,0,0,0-.11.66,2.15,2.15,0,0,0,.11.68,1.93,1.93,0,0,0,.32.54,1.53,1.53,0,0,0,.5.36,1.45,1.45,0,0,0,.63.13,1.57,1.57,0,0,0,.58-.1A3.25,3.25,0,0,0,42.94,73.63Z"/><path class="cls-1" d="M45.23,67.76a.3.3,0,0,1,.12-.26,1.35,1.35,0,0,1,.32-.16l1.23-.43H47a.31.31,0,0,1,.27.11.57.57,0,0,1,.07.31v1.5h.75a.41.41,0,0,1,.28.1.39.39,0,0,1,.11.31V70.3a.41.41,0,0,1-.11.33.38.38,0,0,1-.28.11h-.75v4.6a.39.39,0,0,1-.12.31.49.49,0,0,1-.33.11H45.65a.37.37,0,0,1-.42-.42v-4.6h-.56c-.28,0-.42-.15-.42-.44V69.24a.37.37,0,0,1,.42-.41h.56Z"/><path class="cls-1" d="M49.49,66.5a.41.41,0,0,1,.1-.32.43.43,0,0,1,.3-.1h1.27a.5.5,0,0,1,.31.1.41.41,0,0,1,.11.32v1.07a.39.39,0,0,1,0,.14.55.55,0,0,1-.08.15.69.69,0,0,1-.13.11.41.41,0,0,1-.18,0H49.89c-.26,0-.4-.15-.4-.45Zm0,2.76a.45.45,0,0,1,.1-.3.36.36,0,0,1,.3-.12h1.25a.35.35,0,0,1,.14,0,.44.44,0,0,1,.15.08.76.76,0,0,1,.11.14.33.33,0,0,1,0,.17v6.08a.38.38,0,0,1-.11.31.49.49,0,0,1-.33.11H49.89a.37.37,0,0,1-.4-.42Z"/><path class="cls-1" d="M52.68,72.3a3.42,3.42,0,0,1,.13-1,3.13,3.13,0,0,1,.36-.86,3.82,3.82,0,0,1,.55-.72,3.44,3.44,0,0,1,.72-.55,3.5,3.5,0,0,1,1.82-.48,3.64,3.64,0,0,1,1.4.27,3.68,3.68,0,0,1,1.13.76,3.56,3.56,0,0,1,1,2.54,3.71,3.71,0,0,1-.12,1,3.89,3.89,0,0,1-.36.86,3.31,3.31,0,0,1-.56.72,3.49,3.49,0,0,1-.72.56,3.43,3.43,0,0,1-1.81.48,3.5,3.5,0,0,1-1.82-.48,3.49,3.49,0,0,1-.72-.56,3.27,3.27,0,0,1-.55-.72,3.13,3.13,0,0,1-.36-.86A3.32,3.32,0,0,1,52.68,72.3Zm2,0a2.15,2.15,0,0,0,.11.68,1.55,1.55,0,0,0,.32.54,1.48,1.48,0,0,0,.49.36,1.59,1.59,0,0,0,.66.13,1.5,1.5,0,0,0,.64-.13,1.44,1.44,0,0,0,.48-.36,1.53,1.53,0,0,0,.31-.54,2.15,2.15,0,0,0,.11-.68,2.08,2.08,0,0,0-.11-.66,1.61,1.61,0,0,0-.31-.56,1.41,1.41,0,0,0-1.12-.52,1.59,1.59,0,0,0-.66.14,1.54,1.54,0,0,0-.49.38,1.64,1.64,0,0,0-.32.56A2.08,2.08,0,0,0,54.67,72.3Z"/><path class="cls-1" d="M61.06,68.93a.34.34,0,0,1,.15-.07l.15,0h.82a.29.29,0,0,1,.17,0,.27.27,0,0,1,.12.09.39.39,0,0,1,.08.14l.06.16.11.47A1.54,1.54,0,0,1,63,69.4a2,2,0,0,1,.45-.33,2.67,2.67,0,0,1,.62-.24,2.8,2.8,0,0,1,.79-.1A2.45,2.45,0,0,1,66,69a2.53,2.53,0,0,1,.83.65,2.92,2.92,0,0,1,.52,1,3.79,3.79,0,0,1,.18,1.18v3.57a.46.46,0,0,1-.09.31.37.37,0,0,1-.29.11H65.85a.51.51,0,0,1-.32-.08.41.41,0,0,1-.09-.31V71.82a1,1,0,0,0-.1-.44,1.44,1.44,0,0,0-.28-.37,1.53,1.53,0,0,0-.4-.26,1.2,1.2,0,0,0-.45-.09,1,1,0,0,0-.4.09,1.52,1.52,0,0,0-.38.24,1.44,1.44,0,0,0-.28.37,1,1,0,0,0-.14.45v3.54a.58.58,0,0,1,0,.19.31.31,0,0,1-.11.14l-.13.06-.15,0H61.36a.43.43,0,0,1-.34-.12.4.4,0,0,1-.1-.3v-6.1a.32.32,0,0,1,0-.19.3.3,0,0,1,.12-.13Z"/><path class="cls-1" d="M72.21,69.24a.34.34,0,0,1,0-.18.41.41,0,0,1,.1-.13l.14-.07a.44.44,0,0,1,.16,0h.82a.29.29,0,0,1,.22.08.78.78,0,0,1,.14.2,2.31,2.31,0,0,1,.1.28c0,.1.06.2.1.3l.33-.36A2.5,2.5,0,0,1,74.7,69a2,2,0,0,1,.41-.22,1.54,1.54,0,0,1,.5-.08,2.86,2.86,0,0,1,.53,0,2.23,2.23,0,0,1,.44.13,3.19,3.19,0,0,1,.41.21l.44.31a.39.39,0,0,1,.24.32.53.53,0,0,1-.1.28l-.49.84a.43.43,0,0,1-.37.22.6.6,0,0,1-.24-.06,1.58,1.58,0,0,0-.48-.34,1.23,1.23,0,0,0-.55-.12,1.12,1.12,0,0,0-.38.06,1.22,1.22,0,0,0-.29.17,2,2,0,0,0-.24.26l-.23.34v4a.38.38,0,0,1-.44.42H72.64a.37.37,0,0,1-.43-.42Z"/><path class="cls-1" d="M84.12,74.93a3.82,3.82,0,0,1-1.08.69,3.38,3.38,0,0,1-1.27.25,3.51,3.51,0,0,1-1.41-.28,3.78,3.78,0,0,1-1.17-.75,3.53,3.53,0,0,1-.79-1.14,3.35,3.35,0,0,1-.3-1.42,3.59,3.59,0,0,1,.12-.93,3.87,3.87,0,0,1,.33-.84,3.71,3.71,0,0,1,.53-.72,3.37,3.37,0,0,1,.68-.57,4.09,4.09,0,0,1,.83-.36,3.3,3.3,0,0,1,1-.13,3.47,3.47,0,0,1,2.36,1,3.48,3.48,0,0,1,.53.67,3.57,3.57,0,0,1,.35.77,3,3,0,0,1,.12.85c0,.19,0,.34,0,.46a.5.5,0,0,1-.08.29.39.39,0,0,1-.26.14,2.32,2.32,0,0,1-.52,0H80.11a1.3,1.3,0,0,0,.22.59,1.48,1.48,0,0,0,.38.37,1.63,1.63,0,0,0,.47.2,1.89,1.89,0,0,0,.86,0,2.62,2.62,0,0,0,.4-.11,3,3,0,0,0,.36-.16,1.34,1.34,0,0,0,.26-.19.65.65,0,0,1,.15-.1.2.2,0,0,1,.13,0,.24.24,0,0,1,.14,0,1,1,0,0,1,.17.14l.58.66a.28.28,0,0,1,.07.13.2.2,0,0,1,0,.11.31.31,0,0,1-.06.19ZM81.5,70.39a1.15,1.15,0,0,0-.41.08,1.83,1.83,0,0,0-.38.23,1.88,1.88,0,0,0-.31.32,2.06,2.06,0,0,0-.23.37H83a3,3,0,0,0-.25-.4,1.77,1.77,0,0,0-.3-.31,1.39,1.39,0,0,0-.4-.21A1.33,1.33,0,0,0,81.5,70.39Z"/><path class="cls-1" d="M86,66.5a.45.45,0,0,1,.1-.32.46.46,0,0,1,.31-.1H87.7a.5.5,0,0,1,.31.1.38.38,0,0,1,.12.32v1.07a.39.39,0,0,1,0,.14.6.6,0,0,1-.09.15.69.69,0,0,1-.13.11.37.37,0,0,1-.18,0H86.44c-.27,0-.41-.15-.41-.45Zm0,2.76a.51.51,0,0,1,.1-.3.39.39,0,0,1,.31-.12h1.24a.44.44,0,0,1,.15,0A.5.5,0,0,1,88,69a.76.76,0,0,1,.11.14.34.34,0,0,1,0,.17v6.08a.39.39,0,0,1-.12.31.47.47,0,0,1-.33.11H86.44a.37.37,0,0,1-.41-.42Z"/><path class="cls-1" d="M89.57,68.93a.34.34,0,0,1,.15-.07l.15,0h.83a.33.33,0,0,1,.17,0L91,69a.64.64,0,0,1,.08.14s0,.1.05.16l.12.47a1.57,1.57,0,0,1,.23-.34,1.62,1.62,0,0,1,.39-.33,1.93,1.93,0,0,1,.56-.24,2.46,2.46,0,0,1,.76-.1,2.94,2.94,0,0,1,.62.07,1.94,1.94,0,0,1,.51.2,2,2,0,0,1,.43.33,4.25,4.25,0,0,1,.36.44,1.52,1.52,0,0,1,.3-.35,2.24,2.24,0,0,1,.49-.34,3.6,3.6,0,0,1,.63-.25,3,3,0,0,1,.74-.1,2.34,2.34,0,0,1,1.09.24,2.21,2.21,0,0,1,.77.65,2.81,2.81,0,0,1,.46,1,4.49,4.49,0,0,1,.15,1.18v3.57a.46.46,0,0,1-.09.31.35.35,0,0,1-.28.11H98.1a.49.49,0,0,1-.32-.08.41.41,0,0,1-.09-.31v-3.6a1.27,1.27,0,0,0-.07-.44,1.13,1.13,0,0,0-.21-.35.82.82,0,0,0-.32-.23.91.91,0,0,0-.41-.09,1.1,1.1,0,0,0-.4.08A1,1,0,0,0,96,71a1.09,1.09,0,0,0-.31.8v3.57a.46.46,0,0,1-.09.31.37.37,0,0,1-.29.11H94a.49.49,0,0,1-.32-.08.41.41,0,0,1-.09-.31v-3.6a1.27,1.27,0,0,0-.07-.44,1.08,1.08,0,0,0-.19-.35.87.87,0,0,0-.31-.23.91.91,0,0,0-.41-.09,1,1,0,0,0-.39.08,1.24,1.24,0,0,0-.34.22,1.48,1.48,0,0,0-.25.35,1.29,1.29,0,0,0-.11.45v3.59a.58.58,0,0,1,0,.19.26.26,0,0,1-.11.14.38.38,0,0,1-.13.06l-.14,0H89.87a.42.42,0,0,1-.33-.12.41.41,0,0,1-.11-.3v-6.1a.41.41,0,0,1,0-.19.27.27,0,0,1,.13-.13Z"/><path class="cls-1" d="M108.17,75.35a.48.48,0,0,1,0,.18.24.24,0,0,1-.11.13.29.29,0,0,1-.14.08l-.15,0h-1.07a.42.42,0,0,1-.18,0,.27.27,0,0,1-.12-.09.4.4,0,0,1-.07-.13c0-.05,0-.11-.07-.17l-.07-.25a2.36,2.36,0,0,1-.33.29,1.94,1.94,0,0,1-.42.25,2.53,2.53,0,0,1-.48.19,2.35,2.35,0,0,1-.54.06,3.43,3.43,0,0,1-1.8-.48,3.19,3.19,0,0,1-.71-.56,3.31,3.31,0,0,1-.56-.72,3.89,3.89,0,0,1-.36-.86,3.71,3.71,0,0,1-.12-1A3.57,3.57,0,0,1,103,69a3.62,3.62,0,0,1,1.39-.27,2.48,2.48,0,0,1,.63.07,2.33,2.33,0,0,1,.54.21,2.69,2.69,0,0,1,.44.31,3.14,3.14,0,0,1,.34.4l.16-.5a1.65,1.65,0,0,1,.09-.22.42.42,0,0,1,.07-.12.21.21,0,0,1,.1-.06h1a.44.44,0,0,1,.15,0,.27.27,0,0,1,.14.07.36.36,0,0,1,.11.14.47.47,0,0,1,0,.17Zm-5.37-3a2.15,2.15,0,0,0,.11.68,1.72,1.72,0,0,0,.32.54,1.64,1.64,0,0,0,.5.36,1.51,1.51,0,0,0,.65.13,1.72,1.72,0,0,0,.68-.13,1.82,1.82,0,0,0,.54-.36A1.65,1.65,0,0,0,106,73a1.72,1.72,0,0,0,.13-.68,1.65,1.65,0,0,0-.13-.66,1.74,1.74,0,0,0-.36-.56,1.88,1.88,0,0,0-.54-.38,1.72,1.72,0,0,0-.68-.14,1.51,1.51,0,0,0-.65.14,1.7,1.7,0,0,0-.5.38,1.82,1.82,0,0,0-.32.56A2.08,2.08,0,0,0,102.8,72.3Z"/><path class="cls-1" d="M114.49,75.52a.85.85,0,0,0,.05-.24,2.44,2.44,0,0,0,0-.27v-.23l-.33.33a1.7,1.7,0,0,1-.36.29,1.55,1.55,0,0,1-.45.21,2,2,0,0,1-.58.08,3.74,3.74,0,0,1-1.36-.25,3.34,3.34,0,0,1-1.09-.7,3.22,3.22,0,0,1-.71-1.08,3.65,3.65,0,0,1-.26-1.38,3.83,3.83,0,0,1,.26-1.4,3.55,3.55,0,0,1,.71-1.13,3.31,3.31,0,0,1,2.45-1,2.45,2.45,0,0,1,.62.07A2.28,2.28,0,0,1,114,69a2.59,2.59,0,0,1,.42.32,4.26,4.26,0,0,1,.35.38l.15-.49a.7.7,0,0,0,.06-.17.57.57,0,0,1,.08-.13.18.18,0,0,1,.11-.07.4.4,0,0,1,.17,0h.82a.4.4,0,0,1,.15,0,.37.37,0,0,1,.14.07.64.64,0,0,1,.1.13.47.47,0,0,1,0,.17v5.55a4,4,0,0,1-.28,1.52,3.41,3.41,0,0,1-.76,1.12,3.31,3.31,0,0,1-1.14.7,4.15,4.15,0,0,1-1.42.24,3.52,3.52,0,0,1-.63-.06,4.14,4.14,0,0,1-.68-.15,3.61,3.61,0,0,1-.64-.27,2.47,2.47,0,0,1-.56-.37.67.67,0,0,1-.14-.15.46.46,0,0,1,0-.2.51.51,0,0,1,.1-.29l.52-.71A.47.47,0,0,1,111,76a.23.23,0,0,1,.14,0,.53.53,0,0,1,.3.13,1.69,1.69,0,0,0,.31.21,2.29,2.29,0,0,0,.37.12,2.38,2.38,0,0,0,.37.06l.33,0a2.4,2.4,0,0,0,.51-.07,2,2,0,0,0,.5-.19,1.81,1.81,0,0,0,.41-.32A.89.89,0,0,0,114.49,75.52Zm-3.12-3.24a1.91,1.91,0,0,0,.12.68,1.59,1.59,0,0,0,.31.54,1.64,1.64,0,0,0,.5.36A1.54,1.54,0,0,0,113,74a1.84,1.84,0,0,0,.66-.12,1.72,1.72,0,0,0,.53-.34,1.67,1.67,0,0,0,.37-.51,1.72,1.72,0,0,0,.16-.64V72.2a1.72,1.72,0,0,0-.16-.63,1.59,1.59,0,0,0-.37-.52,1.77,1.77,0,0,0-.53-.36,1.66,1.66,0,0,0-.66-.14,1.55,1.55,0,0,0-.65.14,1.7,1.7,0,0,0-.5.38,1.64,1.64,0,0,0-.31.55A1.84,1.84,0,0,0,111.37,72.28Z"/><path class="cls-1" d="M117.85,66.5a.41.41,0,0,1,.1-.32.41.41,0,0,1,.3-.1h1.27a.47.47,0,0,1,.3.1.38.38,0,0,1,.12.32v1.07a.39.39,0,0,1,0,.14,1.09,1.09,0,0,1-.08.15.53.53,0,0,1-.14.11.34.34,0,0,1-.17,0h-1.27c-.27,0-.4-.15-.4-.45Zm0,2.76a.45.45,0,0,1,.1-.3.35.35,0,0,1,.3-.12h1.25l.14,0a.39.39,0,0,1,.14.08.81.81,0,0,1,.12.14.33.33,0,0,1,0,.17v6.08a.42.42,0,0,1-.11.31.49.49,0,0,1-.33.11h-1.25c-.27,0-.4-.14-.4-.42Z"/><path class="cls-1" d="M121.39,68.93a.34.34,0,0,1,.15-.07l.15,0h.82a.29.29,0,0,1,.17,0,.27.27,0,0,1,.12.09.39.39,0,0,1,.08.14l.06.16.11.47a1.54,1.54,0,0,1,.27-.34,2,2,0,0,1,.45-.33,2.67,2.67,0,0,1,.62-.24,2.8,2.8,0,0,1,.79-.1,2.45,2.45,0,0,1,1.11.24,2.53,2.53,0,0,1,.83.65,2.92,2.92,0,0,1,.52,1,3.79,3.79,0,0,1,.18,1.18v3.57a.46.46,0,0,1-.09.31.37.37,0,0,1-.29.11h-1.26a.51.51,0,0,1-.32-.08.41.41,0,0,1-.09-.31V71.82a1,1,0,0,0-.1-.44,1.44,1.44,0,0,0-.28-.37,1.53,1.53,0,0,0-.4-.26,1.2,1.2,0,0,0-.45-.09,1,1,0,0,0-.4.09,1.52,1.52,0,0,0-.38.24,1.44,1.44,0,0,0-.28.37,1,1,0,0,0-.14.45v3.54a.58.58,0,0,1,0,.19.31.31,0,0,1-.11.14l-.13.06-.15,0h-1.23a.43.43,0,0,1-.34-.12.4.4,0,0,1-.1-.3v-6.1a.32.32,0,0,1,0-.19.3.3,0,0,1,.12-.13Z"/><path class="cls-1" d="M134.92,74.93a3.82,3.82,0,0,1-1.08.69,3.38,3.38,0,0,1-1.27.25,3.58,3.58,0,0,1-1.41-.28,3.62,3.62,0,0,1-1.16-.75,3.56,3.56,0,0,1-.8-1.14,3.34,3.34,0,0,1-.29-1.42,4.08,4.08,0,0,1,.11-.93,3.44,3.44,0,0,1,.34-.84,3.29,3.29,0,0,1,.52-.72,3.18,3.18,0,0,1,.69-.57,3.65,3.65,0,0,1,.83-.36,3.19,3.19,0,0,1,.94-.13,3.28,3.28,0,0,1,.88.12,3.45,3.45,0,0,1,1.48.86,3.51,3.51,0,0,1,.88,1.44,3,3,0,0,1,.12.85c0,.19,0,.34,0,.46a.5.5,0,0,1-.08.29.39.39,0,0,1-.25.14,2.32,2.32,0,0,1-.52,0h-3.93a1.43,1.43,0,0,0,.22.59,1.37,1.37,0,0,0,.39.37,1.57,1.57,0,0,0,.46.2,1.94,1.94,0,0,0,.46.06,2,2,0,0,0,.41,0,3,3,0,0,0,.4-.11l.35-.16a.92.92,0,0,0,.26-.19l.15-.1a.22.22,0,0,1,.13,0,.3.3,0,0,1,.15,0,.94.94,0,0,1,.16.14l.58.66a.31.31,0,0,1,.08.13.37.37,0,0,1,0,.11.38.38,0,0,1-.05.19A.67.67,0,0,1,134.92,74.93Zm-2.62-4.54a1.15,1.15,0,0,0-.41.08,1.76,1.76,0,0,0-.37.23,1.94,1.94,0,0,0-.32.32,2,2,0,0,0-.22.37h2.78a2.26,2.26,0,0,0-.25-.4,1.43,1.43,0,0,0-.69-.52A1.39,1.39,0,0,0,132.3,70.39Z"/><path class="cls-1" d="M141.77,75.08c-.09.09-.21.19-.33.29a4.1,4.1,0,0,1-.41.26,3.8,3.8,0,0,1-.47.18,1.9,1.9,0,0,1-.54.07,3.45,3.45,0,0,1-1.37-.27,3.29,3.29,0,0,1-1.07-.77,3.53,3.53,0,0,1-.7-1.13,4,4,0,0,1,0-2.82,3.53,3.53,0,0,1,.7-1.13,3.42,3.42,0,0,1,1.07-.76,3.45,3.45,0,0,1,1.37-.27,2.39,2.39,0,0,1,.55,0,1.7,1.7,0,0,1,.45.15,1.83,1.83,0,0,1,.38.23,3,3,0,0,1,.32.3V67.19a.42.42,0,0,1,.11-.29.39.39,0,0,1,.31-.12h1.23l.15,0a.55.55,0,0,1,.15.08.64.64,0,0,1,.1.13.33.33,0,0,1,0,.17v8.15c0,.28-.14.42-.44.42H142.3a.4.4,0,0,1-.17,0,.25.25,0,0,1-.1-.08.76.76,0,0,1-.07-.13l-.08-.18Zm-3.18-2.78a1.9,1.9,0,0,0,.11.68,1.55,1.55,0,0,0,.32.54,1.48,1.48,0,0,0,.49.36,1.54,1.54,0,0,0,.65.13,1.84,1.84,0,0,0,.66-.12,1.75,1.75,0,0,0,.53-.35,1.5,1.5,0,0,0,.37-.52,1.72,1.72,0,0,0,.16-.64V72.3a1.85,1.85,0,0,0-.13-.66,1.79,1.79,0,0,0-.91-.94,1.72,1.72,0,0,0-.68-.14,1.45,1.45,0,0,0-1.14.52,1.64,1.64,0,0,0-.32.56A1.83,1.83,0,0,0,138.59,72.3Z"/><path class="cls-1" d="M148.93,71.91a.21.21,0,0,1,.24-.24h3.72a.25.25,0,0,1,.17.06.21.21,0,0,1,.07.18V73a.32.32,0,0,1-.06.17.23.23,0,0,1-.18.09h-3.72c-.16,0-.24-.09-.24-.26Z"/><path class="cls-1" d="M163,75.08l-.33.29a4.1,4.1,0,0,1-.41.26,3.41,3.41,0,0,1-.48.18,1.79,1.79,0,0,1-.53.07,3.42,3.42,0,0,1-1.37-.27,3.29,3.29,0,0,1-1.07-.77,3.36,3.36,0,0,1-.7-1.13,4,4,0,0,1,0-2.82,3.36,3.36,0,0,1,.7-1.13,3.23,3.23,0,0,1,2.44-1,2.39,2.39,0,0,1,.55,0,1.7,1.7,0,0,1,.45.15,1.76,1.76,0,0,1,.37.23,2.35,2.35,0,0,1,.33.3V67.19a.41.41,0,0,1,.1-.29.42.42,0,0,1,.32-.12h1.23l.15,0a.39.39,0,0,1,.14.08A.45.45,0,0,1,165,67a.33.33,0,0,1,0,.17v8.15c0,.28-.15.42-.44.42h-1.07a.4.4,0,0,1-.17,0,.25.25,0,0,1-.1-.08.4.4,0,0,1-.07-.13l-.08-.18Zm-3.19-2.78A1.91,1.91,0,0,0,160,73a1.69,1.69,0,0,0,.31.54,1.64,1.64,0,0,0,.5.36,1.54,1.54,0,0,0,.65.13,1.84,1.84,0,0,0,.66-.12,1.75,1.75,0,0,0,.53-.35A1.5,1.5,0,0,0,163,73a1.94,1.94,0,0,0,.16-.64V72.3a1.85,1.85,0,0,0-.13-.66,1.79,1.79,0,0,0-.91-.94,1.72,1.72,0,0,0-.68-.14,1.55,1.55,0,0,0-.65.14,1.7,1.7,0,0,0-.5.38,1.79,1.79,0,0,0-.31.56A1.84,1.84,0,0,0,159.83,72.3Z"/><path class="cls-1" d="M166.5,66.5a.45.45,0,0,1,.1-.32.46.46,0,0,1,.31-.1h1.26a.5.5,0,0,1,.31.1.38.38,0,0,1,.12.32v1.07a.39.39,0,0,1,0,.14.6.6,0,0,1-.09.15.47.47,0,0,1-.13.11.35.35,0,0,1-.18,0h-1.26c-.27,0-.41-.15-.41-.45Zm0,2.76a.51.51,0,0,1,.1-.3.39.39,0,0,1,.31-.12h1.25l.14,0a.39.39,0,0,1,.14.08.76.76,0,0,1,.11.14.34.34,0,0,1,0,.17v6.08a.39.39,0,0,1-.12.31.44.44,0,0,1-.32.11h-1.25a.37.37,0,0,1-.41-.42Z"/><path class="cls-1" d="M170.94,73.61a1.78,1.78,0,0,0,.32.24,2.59,2.59,0,0,0,.33.17l.28.09.16,0h.27l.3,0a.72.72,0,0,0,.26-.14.33.33,0,0,0,.1-.26.43.43,0,0,0-.06-.24.5.5,0,0,0-.17-.15,1.47,1.47,0,0,0-.28-.12l-.38-.11a4.77,4.77,0,0,1-1.07-.42,2.4,2.4,0,0,1-.68-.55,1.77,1.77,0,0,1-.34-.65,2.52,2.52,0,0,1-.1-.73,1.87,1.87,0,0,1,.18-.83,1.82,1.82,0,0,1,.51-.63,2.42,2.42,0,0,1,.8-.41,3.28,3.28,0,0,1,1-.15,3.24,3.24,0,0,1,.64.06,2.7,2.7,0,0,1,.57.18,2.67,2.67,0,0,1,.53.32,3.65,3.65,0,0,1,.52.46.32.32,0,0,1,.09.2c0,.07,0,.13-.12.21l-.41.34-.4.38a.22.22,0,0,1-.13.06h-.12l-.12-.05a.43.43,0,0,1-.09-.1,1,1,0,0,0-.44-.28,1.59,1.59,0,0,0-.46-.08.81.81,0,0,0-.42.1.27.27,0,0,0-.15.28A.28.28,0,0,0,172,71a.73.73,0,0,0,.23.13l.29.08.29.07a7.73,7.73,0,0,1,.9.34,2.71,2.71,0,0,1,.71.46,1.75,1.75,0,0,1,.46.64,2.29,2.29,0,0,1,.17.92,2.12,2.12,0,0,1-.21,1,2.31,2.31,0,0,1-.6.72,2.65,2.65,0,0,1-.89.44,3.92,3.92,0,0,1-1.11.15,4,4,0,0,1-.68-.06,3.11,3.11,0,0,1-.68-.19,3.18,3.18,0,0,1-.62-.35,2.29,2.29,0,0,1-.52-.51.51.51,0,0,1-.09-.16.45.45,0,0,1,0-.16.33.33,0,0,1,0-.15.23.23,0,0,1,.1-.12l.7-.7a.24.24,0,0,1,.23-.08A.62.62,0,0,1,170.94,73.61Z"/><path class="cls-1" d="M180.65,73.63a.37.37,0,0,1,.14-.07l.11,0a.47.47,0,0,1,.17,0,.53.53,0,0,1,.16.17l.61.92a.93.93,0,0,0,0,.1.31.31,0,0,1,0,.08.26.26,0,0,1-.08.21l-.17.14a4.52,4.52,0,0,1-1,.5,3.46,3.46,0,0,1-1.12.18,3.43,3.43,0,0,1-1.8-.48,3.19,3.19,0,0,1-.71-.56,3,3,0,0,1-.56-.72,3.89,3.89,0,0,1-.36-.86,3.71,3.71,0,0,1-.13-1,3.83,3.83,0,0,1,.13-1,3.89,3.89,0,0,1,.36-.86,3.49,3.49,0,0,1,.56-.72,3.14,3.14,0,0,1,.71-.55,3.43,3.43,0,0,1,1.8-.48,3.57,3.57,0,0,1,1.1.16,3.42,3.42,0,0,1,.94.46h0a.74.74,0,0,1,.19.16.48.48,0,0,1,.07.24.4.4,0,0,1-.07.2l-.48.83a.46.46,0,0,1-.37.26l-.12,0-.16-.09a2.81,2.81,0,0,0-.52-.26,1.86,1.86,0,0,0-.58-.1,1.53,1.53,0,0,0-.64.14,1.66,1.66,0,0,0-.49.38,1.82,1.82,0,0,0-.32.56,2.08,2.08,0,0,0-.11.66,2.15,2.15,0,0,0,.11.68,1.72,1.72,0,0,0,.32.54,1.6,1.6,0,0,0,.49.36,1.53,1.53,0,0,0,.64.13,1.61,1.61,0,0,0,.58-.1A3.74,3.74,0,0,0,180.65,73.63Z"/><path class="cls-1" d="M182.73,72.3a3.83,3.83,0,0,1,.13-1,3.5,3.5,0,0,1,.92-1.58,3,3,0,0,1,.72-.55,3.64,3.64,0,0,1,.86-.36,3.83,3.83,0,0,1,1-.12,3.54,3.54,0,0,1,2.53,1,3.68,3.68,0,0,1,.76,1.13,3.51,3.51,0,0,1,.28,1.41,3.32,3.32,0,0,1-.13,1,3.13,3.13,0,0,1-.36.86,3.47,3.47,0,0,1-1.28,1.28,3.56,3.56,0,0,1-.85.36,3.69,3.69,0,0,1-1,.12,3.83,3.83,0,0,1-1-.12,3.64,3.64,0,0,1-.86-.36,3,3,0,0,1-.72-.56,3.31,3.31,0,0,1-.56-.72,3.89,3.89,0,0,1-.36-.86A3.71,3.71,0,0,1,182.73,72.3Zm2,0a1.91,1.91,0,0,0,.12.68,1.69,1.69,0,0,0,.31.54,1.53,1.53,0,0,0,.5.36,1.51,1.51,0,0,0,.65.13,1.47,1.47,0,0,0,.64-.13,1.39,1.39,0,0,0,.49-.36,1.67,1.67,0,0,0,.3-.54,1.9,1.9,0,0,0,.11-.68,1.83,1.83,0,0,0-.11-.66,1.77,1.77,0,0,0-.3-.56,1.44,1.44,0,0,0-.49-.38,1.47,1.47,0,0,0-.64-.14,1.51,1.51,0,0,0-.65.14,1.58,1.58,0,0,0-.5.38,1.79,1.79,0,0,0-.31.56A1.84,1.84,0,0,0,184.72,72.3Z"/><path class="cls-1" d="M190.18,69.38a.5.5,0,0,1,0-.39.33.33,0,0,1,.33-.15h1.39a.41.41,0,0,1,.25.07.44.44,0,0,1,.15.22l.21.65c.07.24.15.49.23.74l.24.75c.08.25.16.48.22.69l.18.54c.06.16.09.27.12.33l1.16-3.7a.42.42,0,0,1,.16-.23.44.44,0,0,1,.25-.06h1.43a.7.7,0,0,1,.24,0,.2.2,0,0,1,.11.11.24.24,0,0,1,0,.15,1.54,1.54,0,0,1,0,.17l-2.6,6.22a.58.58,0,0,1-.14.17.33.33,0,0,1-.24.07h-.65a.58.58,0,0,1-.31-.06.4.4,0,0,1-.13-.18Z"/><path class="cls-1" d="M203.08,74.93a3.77,3.77,0,0,1-1.07.69,3.42,3.42,0,0,1-1.27.25,3.75,3.75,0,0,1-2.58-1,3.56,3.56,0,0,1-.8-1.14,3.5,3.5,0,0,1-.29-1.42,3.59,3.59,0,0,1,.12-.93,3.06,3.06,0,0,1,.33-.84,3.66,3.66,0,0,1,.52-.72,3.74,3.74,0,0,1,.69-.57,3.65,3.65,0,0,1,.83-.36,3.38,3.38,0,0,1,1.82,0,3.32,3.32,0,0,1,.8.34,3.07,3.07,0,0,1,.68.52,3.18,3.18,0,0,1,.54.67,3.54,3.54,0,0,1,.34.77,3,3,0,0,1,.12.85v.46a.59.59,0,0,1-.09.29.36.36,0,0,1-.25.14,2.32,2.32,0,0,1-.52,0h-3.93a1.43,1.43,0,0,0,.22.59,1.37,1.37,0,0,0,.39.37,1.57,1.57,0,0,0,.46.2,2,2,0,0,0,.47.06,1.87,1.87,0,0,0,.4,0,2.62,2.62,0,0,0,.4-.11,2.29,2.29,0,0,0,.35-.16.92.92,0,0,0,.26-.19l.15-.1a.23.23,0,0,1,.14,0,.3.3,0,0,1,.14,0,1.53,1.53,0,0,1,.17.14l.57.66a.31.31,0,0,1,.08.13.36.36,0,0,1,0,.11.31.31,0,0,1-.06.19A.67.67,0,0,1,203.08,74.93Zm-2.62-4.54a1.15,1.15,0,0,0-.41.08,1.76,1.76,0,0,0-.37.23,1.57,1.57,0,0,0-.31.32,1.62,1.62,0,0,0-.23.37h2.78a3,3,0,0,0-.24-.4,1.82,1.82,0,0,0-.31-.31,1.22,1.22,0,0,0-.39-.21A1.39,1.39,0,0,0,200.46,70.39Z"/><path class="cls-1" d="M205,69.24a.48.48,0,0,1,0-.18.64.64,0,0,1,.1-.13l.14-.07a.47.47,0,0,1,.16,0h.82a.27.27,0,0,1,.22.08.78.78,0,0,1,.14.2,2.31,2.31,0,0,1,.1.28c0,.1.06.2.1.3l.33-.36a3.28,3.28,0,0,1,.34-.31,2,2,0,0,1,.41-.22,1.54,1.54,0,0,1,.5-.08,2.79,2.79,0,0,1,.53,0,2.23,2.23,0,0,1,.44.13,2.65,2.65,0,0,1,.41.21l.44.31a.39.39,0,0,1,.24.32.6.6,0,0,1-.09.28l-.5.84a.42.42,0,0,1-.36.22.61.61,0,0,1-.25-.06,1.58,1.58,0,0,0-.48-.34,1.2,1.2,0,0,0-.55-.12,1,1,0,0,0-.37.06,1.11,1.11,0,0,0-.3.17,3.08,3.08,0,0,0-.24.26l-.23.34v4a.41.41,0,0,1-.1.31.46.46,0,0,1-.34.11h-1.22a.38.38,0,0,1-.43-.42Z"/><path class="cls-1" d="M215.11,67.76a.32.32,0,0,1,.11-.26,1.9,1.9,0,0,1,.32-.16l1.24-.43h.1a.31.31,0,0,1,.27.11.68.68,0,0,1,.07.31v1.5H218a.37.37,0,0,1,.39.41V70.3a.45.45,0,0,1-.11.33.39.39,0,0,1-.28.11h-.75v4.6a.39.39,0,0,1-.12.31.5.5,0,0,1-.34.11h-1.23a.37.37,0,0,1-.42-.42v-4.6h-.56c-.28,0-.42-.15-.42-.44V69.24a.37.37,0,0,1,.42-.41h.56Z"/><path class="cls-1" d="M221.47,69.56a1.54,1.54,0,0,1,.28-.3,2.26,2.26,0,0,1,.42-.26,2.76,2.76,0,0,1,.53-.19,2.43,2.43,0,0,1,.61-.08,2.32,2.32,0,0,1,1.08.24,2.24,2.24,0,0,1,.75.65,3,3,0,0,1,.44,1,4.49,4.49,0,0,1,.14,1.18v3.57a.46.46,0,0,1-.09.31.35.35,0,0,1-.28.11h-1.26a.49.49,0,0,1-.32-.08.41.41,0,0,1-.09-.31v-3.6a1.08,1.08,0,0,0-.09-.44,1.21,1.21,0,0,0-.24-.35,1,1,0,0,0-.36-.23,1.07,1.07,0,0,0-.43-.09,1.09,1.09,0,0,0-.39.08,1.19,1.19,0,0,0-.33.22,1.52,1.52,0,0,0-.26.35,1.29,1.29,0,0,0-.11.45v3.59a.41.41,0,0,1,0,.19.3.3,0,0,1-.1.14l-.14.06-.14,0h-1.23a.43.43,0,0,1-.34-.12.41.41,0,0,1-.11-.3V67.19a.44.44,0,0,1,.11-.3.46.46,0,0,1,.34-.11h1.23a.6.6,0,0,1,.28.09.3.3,0,0,1,.1.14.38.38,0,0,1,0,.17Z"/><path class="cls-1" d="M232.83,74.93a3.82,3.82,0,0,1-1.08.69,3.38,3.38,0,0,1-1.27.25,3.51,3.51,0,0,1-1.41-.28,3.78,3.78,0,0,1-1.17-.75,3.53,3.53,0,0,1-.79-1.14,3.35,3.35,0,0,1-.3-1.42,3.59,3.59,0,0,1,.12-.93,3.87,3.87,0,0,1,.33-.84,3.71,3.71,0,0,1,.53-.72,3.18,3.18,0,0,1,.69-.57,3.78,3.78,0,0,1,.82-.36,3.41,3.41,0,0,1,1.83,0,3.25,3.25,0,0,1,.79.34,3.13,3.13,0,0,1,.69.52,3.48,3.48,0,0,1,.53.67,3.15,3.15,0,0,1,.35.77,3,3,0,0,1,.12.85c0,.19,0,.34,0,.46a.5.5,0,0,1-.08.29.39.39,0,0,1-.26.14,2.26,2.26,0,0,1-.52,0h-3.92a1.43,1.43,0,0,0,.22.59,1.48,1.48,0,0,0,.38.37,1.63,1.63,0,0,0,.47.2,1.94,1.94,0,0,0,.46.06,1.81,1.81,0,0,0,.4,0,2.34,2.34,0,0,0,.4-.11,3,3,0,0,0,.36-.16,1.09,1.09,0,0,0,.26-.19l.15-.1a.2.2,0,0,1,.13,0,.3.3,0,0,1,.15,0l.16.14.58.66a.31.31,0,0,1,.08.13.37.37,0,0,1,0,.11.31.31,0,0,1-.06.19A.62.62,0,0,1,232.83,74.93Zm-2.62-4.54a1.15,1.15,0,0,0-.41.08,2.14,2.14,0,0,0-.38.23,1.88,1.88,0,0,0-.31.32,2.06,2.06,0,0,0-.23.37h2.79a3,3,0,0,0-.25-.4,1.77,1.77,0,0,0-.3-.31,1.39,1.39,0,0,0-.4-.21A1.3,1.3,0,0,0,230.21,70.39Z"/><path class="cls-1" d="M238.31,68.93a.34.34,0,0,1,.15-.07l.15,0h.82a.31.31,0,0,1,.17,0,.27.27,0,0,1,.12.09.64.64,0,0,1,.08.14l.06.16.11.47a1.23,1.23,0,0,1,.26-.34,2.36,2.36,0,0,1,.46-.33,2.5,2.5,0,0,1,.62-.24,2.8,2.8,0,0,1,.79-.1,2.48,2.48,0,0,1,1.11.24,2.53,2.53,0,0,1,.83.65,2.92,2.92,0,0,1,.52,1,4.1,4.1,0,0,1,.17,1.18v3.57a.46.46,0,0,1-.09.31.35.35,0,0,1-.28.11H243.1a.49.49,0,0,1-.32-.08.41.41,0,0,1-.09-.31V71.82a1,1,0,0,0-.11-.44,1.25,1.25,0,0,0-.28-.37,1.48,1.48,0,0,0-.39-.26,1.2,1.2,0,0,0-.45-.09,1,1,0,0,0-.4.09,1.52,1.52,0,0,0-.38.24,1.76,1.76,0,0,0-.29.37,1,1,0,0,0-.13.45v3.54a.41.41,0,0,1,0,.19.3.3,0,0,1-.1.14.42.42,0,0,1-.14.06l-.14,0h-1.23a.43.43,0,0,1-.34-.12.4.4,0,0,1-.1-.3v-6.1a.41.41,0,0,1,0-.19.33.33,0,0,1,.13-.13Z"/><path class="cls-1" d="M251.84,74.93a3.82,3.82,0,0,1-1.08.69,3.38,3.38,0,0,1-1.27.25,3.51,3.51,0,0,1-1.41-.28,3.78,3.78,0,0,1-1.17-.75,3.53,3.53,0,0,1-.79-1.14,3.35,3.35,0,0,1-.3-1.42,3.59,3.59,0,0,1,.12-.93,3.87,3.87,0,0,1,.33-.84,3.71,3.71,0,0,1,.53-.72,3.18,3.18,0,0,1,.69-.57,3.78,3.78,0,0,1,.82-.36,3.3,3.3,0,0,1,.95-.13,3.47,3.47,0,0,1,2.36,1,3.48,3.48,0,0,1,.53.67,3.15,3.15,0,0,1,.35.77,3,3,0,0,1,.12.85c0,.19,0,.34,0,.46a.5.5,0,0,1-.08.29.39.39,0,0,1-.26.14,2.26,2.26,0,0,1-.52,0h-3.92a1.43,1.43,0,0,0,.22.59,1.48,1.48,0,0,0,.38.37,1.63,1.63,0,0,0,.47.2,1.88,1.88,0,0,0,.46.06,1.81,1.81,0,0,0,.4,0,2.34,2.34,0,0,0,.4-.11,3,3,0,0,0,.36-.16,1.09,1.09,0,0,0,.26-.19l.15-.1a.2.2,0,0,1,.13,0,.3.3,0,0,1,.15,0l.16.14.58.66a.46.46,0,0,1,.08.13.37.37,0,0,1,0,.11.31.31,0,0,1-.06.19A.93.93,0,0,1,251.84,74.93Zm-2.62-4.54a1.15,1.15,0,0,0-.41.08,1.83,1.83,0,0,0-.38.23,1.88,1.88,0,0,0-.31.32,2.06,2.06,0,0,0-.23.37h2.79a3,3,0,0,0-.25-.4,1.77,1.77,0,0,0-.3-.31,1.39,1.39,0,0,0-.4-.21A1.33,1.33,0,0,0,249.22,70.39Z"/><path class="cls-1" d="M253,69.38a.43.43,0,0,1,0-.39c0-.1.15-.15.32-.15h1.39a.41.41,0,0,1,.25.07.44.44,0,0,1,.15.22l.21.65c.07.23.15.48.23.72l.24.74c.08.24.16.47.22.67l.18.54q.09.22.12.33l1.16-3.65a.42.42,0,0,1,.16-.23.44.44,0,0,1,.25-.06h1.29a.7.7,0,0,1,.24,0,.2.2,0,0,1,.11.11.24.24,0,0,1,0,.15,1.54,1.54,0,0,1-.05.17l-.6,1.47a2,2,0,0,0,.15.31l.24.51c.1.18.19.38.29.58s.17.4.24.58l1.33-3.62a.56.56,0,0,1,.15-.23.34.34,0,0,1,.22-.06h1.2a.52.52,0,0,1,.36.09c.07.07.07.19,0,.37l-2.55,6.22a.4.4,0,0,1-.15.17.5.5,0,0,1-.29.07h-.58a.53.53,0,0,1-.31-.07.65.65,0,0,1-.15-.18L258,73l-1,2.48a.61.61,0,0,1-.15.17.33.33,0,0,1-.24.07H256a.58.58,0,0,1-.31-.06.4.4,0,0,1-.13-.18Z"/><path class="cls-1" d="M266.91,69.38a.46.46,0,0,1,0-.39c0-.1.15-.15.32-.15h1.4a.43.43,0,0,1,.25.07.44.44,0,0,1,.15.22c.06.19.13.41.2.65s.15.48.23.72.17.5.25.74.15.47.22.67l.18.54q.07.22.12.33l1.15-3.65a.48.48,0,0,1,.16-.23.46.46,0,0,1,.25-.06h1.3a.78.78,0,0,1,.24,0,.23.23,0,0,1,.11.11.35.35,0,0,1,0,.15.7.7,0,0,1-.06.17l-.6,1.47.15.31c.07.15.15.32.25.51l.28.58a5.14,5.14,0,0,1,.24.58L275,69.13a.57.57,0,0,1,.14-.23.36.36,0,0,1,.22-.06h1.21a.56.56,0,0,1,.36.09c.06.07.07.19,0,.37l-2.56,6.22a.4.4,0,0,1-.15.17.46.46,0,0,1-.29.07h-.57a.51.51,0,0,1-.31-.07.55.55,0,0,1-.16-.18l-1-2.47-1,2.48a.79.79,0,0,1-.14.17.37.37,0,0,1-.25.07h-.65a.56.56,0,0,1-.3-.06.42.42,0,0,1-.14-.18Z"/><path class="cls-1" d="M284.65,75.35a.48.48,0,0,1,0,.18.48.48,0,0,1-.25.21l-.15,0h-1.07a.5.5,0,0,1-.19,0,.31.31,0,0,1-.11-.09.4.4,0,0,1-.07-.13c0-.05,0-.11-.07-.17l-.07-.25a2.36,2.36,0,0,1-.33.29,2.22,2.22,0,0,1-.42.25,2.53,2.53,0,0,1-.48.19,2.35,2.35,0,0,1-.54.06,3.69,3.69,0,0,1-.95-.12,3.56,3.56,0,0,1-.85-.36,3.49,3.49,0,0,1-.72-.56,3.61,3.61,0,0,1-.55-.72,3.89,3.89,0,0,1-.36-.86,3.71,3.71,0,0,1-.12-1,3.61,3.61,0,0,1,1-2.54,3.68,3.68,0,0,1,1.13-.76,3.59,3.59,0,0,1,1.39-.27,2.48,2.48,0,0,1,.63.07A2.33,2.33,0,0,1,282,69a2.24,2.24,0,0,1,.43.31,2.57,2.57,0,0,1,.35.4l.16-.5a1.65,1.65,0,0,1,.09-.22.27.27,0,0,1,.07-.12.21.21,0,0,1,.1-.06h1a.44.44,0,0,1,.15,0,.27.27,0,0,1,.14.07.49.49,0,0,1,.11.14.47.47,0,0,1,0,.17Zm-5.37-3a2.15,2.15,0,0,0,.11.68,1.72,1.72,0,0,0,.32.54,1.64,1.64,0,0,0,.5.36,1.51,1.51,0,0,0,.65.13,1.63,1.63,0,0,0,.67-.13,1.87,1.87,0,0,0,.55-.36,1.82,1.82,0,0,0,.36-.54,1.72,1.72,0,0,0,.13-.68,1.65,1.65,0,0,0-.13-.66,1.7,1.7,0,0,0-.91-.94,1.64,1.64,0,0,0-.67-.14,1.51,1.51,0,0,0-.65.14,1.7,1.7,0,0,0-.5.38,1.82,1.82,0,0,0-.32.56A2.08,2.08,0,0,0,279.28,72.3Z"/><path class="cls-1" d="M285.54,69.36a.44.44,0,0,1,0-.37c.06-.11.18-.16.38-.16h1.34a.36.36,0,0,1,.23.08.57.57,0,0,1,.13.21l1.54,4.39,1.51-4.39a.46.46,0,0,1,.15-.23.48.48,0,0,1,.26-.06h1.4a.55.55,0,0,1,.24,0,.26.26,0,0,1,.12.11.27.27,0,0,1,0,.15,1.09,1.09,0,0,1-.05.17c-.14.34-.29.71-.45,1.12s-.33.83-.51,1.26-.35.89-.54,1.34-.35.9-.53,1.33-.34.86-.5,1.26l-.43,1.1c-.14.34-.25.64-.35.89s-.17.45-.22.59v0a.47.47,0,0,1-.13.24.36.36,0,0,1-.24.09h-1.26a.43.43,0,0,1-.34-.1.38.38,0,0,1-.09-.28.36.36,0,0,1,0-.11l0,0,.86-2.22Z"/><path class="cls-1" d="M297.53,67.76a.29.29,0,0,1,.11-.26,1.35,1.35,0,0,1,.32-.16l1.23-.43h.1a.29.29,0,0,1,.27.11.57.57,0,0,1,.07.31v1.5h.74a.46.46,0,0,1,.29.1.43.43,0,0,1,.1.31V70.3a.45.45,0,0,1-.1.33.42.42,0,0,1-.29.11h-.74v4.6a.39.39,0,0,1-.12.31.49.49,0,0,1-.33.11H298a.37.37,0,0,1-.42-.42v-4.6H297c-.28,0-.42-.15-.42-.44V69.24a.37.37,0,0,1,.42-.41h.56Z"/><path class="cls-1" d="M301.37,72.3a3.42,3.42,0,0,1,.13-1,3.13,3.13,0,0,1,.36-.86,3.82,3.82,0,0,1,.55-.72,3.44,3.44,0,0,1,.72-.55,3.5,3.5,0,0,1,1.83-.48,3.62,3.62,0,0,1,1.39.27,3.68,3.68,0,0,1,1.13.76,3.62,3.62,0,0,1,1,2.54,3.71,3.71,0,0,1-.13,1,3.89,3.89,0,0,1-.36.86,3.31,3.31,0,0,1-.56.72,3.24,3.24,0,0,1-.72.56,3.43,3.43,0,0,1-1.8.48,3.5,3.5,0,0,1-1.83-.48,3.49,3.49,0,0,1-.72-.56,3.27,3.27,0,0,1-.55-.72,3.13,3.13,0,0,1-.36-.86A3.32,3.32,0,0,1,301.37,72.3Zm2,0a2.15,2.15,0,0,0,.11.68,1.55,1.55,0,0,0,.32.54,1.48,1.48,0,0,0,.49.36,1.59,1.59,0,0,0,.66.13,1.47,1.47,0,0,0,.64-.13,1.44,1.44,0,0,0,.48-.36,1.53,1.53,0,0,0,.31-.54,2.15,2.15,0,0,0,.11-.68,2.08,2.08,0,0,0-.11-.66,1.61,1.61,0,0,0-.31-.56,1.5,1.5,0,0,0-.48-.38,1.47,1.47,0,0,0-.64-.14,1.59,1.59,0,0,0-.66.14,1.54,1.54,0,0,0-.49.38,1.64,1.64,0,0,0-.32.56A2.08,2.08,0,0,0,303.36,72.3Z"/><path class="cls-1" d="M315,75.34l-.08.18a.76.76,0,0,1-.07.13.25.25,0,0,1-.1.08.4.4,0,0,1-.17,0h-1.08a.37.37,0,0,1-.43-.42V67.2a.43.43,0,0,1,0-.17.73.73,0,0,1,.09-.13.42.42,0,0,1,.14-.09.32.32,0,0,1,.14,0h1.24a.42.42,0,0,1,.32.12.41.41,0,0,1,.12.3v2.26a3.08,3.08,0,0,1,.33-.3,1.83,1.83,0,0,1,.38-.23,3,3,0,0,1,.45-.15,2.26,2.26,0,0,1,.54,0,3.42,3.42,0,0,1,1.37.27,3.3,3.3,0,0,1,1.07.76,3.55,3.55,0,0,1,.71,1.13,4.1,4.1,0,0,1,0,2.82,3.55,3.55,0,0,1-.71,1.13,3.19,3.19,0,0,1-1.07.77,3.42,3.42,0,0,1-1.37.27,1.88,1.88,0,0,1-.53-.07,3.27,3.27,0,0,1-.47-.18,4.28,4.28,0,0,1-.42-.26l-.33-.29Zm3.29-3a2.08,2.08,0,0,0-.11-.66,1.82,1.82,0,0,0-.32-.56,1.7,1.7,0,0,0-.5-.38,1.51,1.51,0,0,0-.65-.14,1.67,1.67,0,0,0-.67.14,1.79,1.79,0,0,0-.91.94,1.85,1.85,0,0,0-.13.66v.08a1.55,1.55,0,0,0,.16.64,1.61,1.61,0,0,0,.36.52,1.93,1.93,0,0,0,.54.35,1.75,1.75,0,0,0,.65.12,1.51,1.51,0,0,0,.65-.13,1.64,1.64,0,0,0,.5-.36,1.72,1.72,0,0,0,.32-.54A2.15,2.15,0,0,0,318.25,72.3Z"/><path class="cls-1" d="M321.31,69.24a.34.34,0,0,1,0-.18.41.41,0,0,1,.1-.13l.14-.07a.44.44,0,0,1,.16,0h.82a.29.29,0,0,1,.22.08.78.78,0,0,1,.14.2c0,.09.07.18.1.28s.06.2.1.3l.33-.36a2.5,2.5,0,0,1,.34-.31,1.78,1.78,0,0,1,.41-.22,1.5,1.5,0,0,1,.5-.08,2.86,2.86,0,0,1,.53,0,2.23,2.23,0,0,1,.44.13,3.19,3.19,0,0,1,.41.21l.44.31a.39.39,0,0,1,.24.32.53.53,0,0,1-.1.28l-.49.84a.43.43,0,0,1-.37.22.6.6,0,0,1-.24-.06,1.58,1.58,0,0,0-.48-.34,1.23,1.23,0,0,0-.55-.12,1.12,1.12,0,0,0-.38.06,1.22,1.22,0,0,0-.29.17,2,2,0,0,0-.24.26,4,4,0,0,0-.23.34v4a.38.38,0,0,1-.44.42h-1.22a.37.37,0,0,1-.43-.42Z"/><path class="cls-1" d="M327.21,72.3a3.42,3.42,0,0,1,.13-1,3.13,3.13,0,0,1,.36-.86,3.82,3.82,0,0,1,.55-.72,3.44,3.44,0,0,1,.72-.55,3.5,3.5,0,0,1,1.82-.48,3.64,3.64,0,0,1,1.4.27,3.68,3.68,0,0,1,1.13.76,3.56,3.56,0,0,1,1,2.54,3.71,3.71,0,0,1-.12,1,3.89,3.89,0,0,1-.36.86,3.31,3.31,0,0,1-.56.72,3.49,3.49,0,0,1-.72.56,3.74,3.74,0,0,1-.85.36A3.63,3.63,0,0,1,329,75.4a3.49,3.49,0,0,1-.72-.56,3.27,3.27,0,0,1-.55-.72,3.13,3.13,0,0,1-.36-.86A3.32,3.32,0,0,1,327.21,72.3Zm2,0a1.9,1.9,0,0,0,.11.68,1.55,1.55,0,0,0,.32.54,1.48,1.48,0,0,0,.49.36,1.56,1.56,0,0,0,.66.13,1.5,1.5,0,0,0,.64-.13,1.44,1.44,0,0,0,.48-.36,1.53,1.53,0,0,0,.31-.54,2.15,2.15,0,0,0,.11-.68,2.08,2.08,0,0,0-.11-.66,1.61,1.61,0,0,0-.31-.56,1.41,1.41,0,0,0-1.12-.52,1.56,1.56,0,0,0-.66.14,1.54,1.54,0,0,0-.49.38,1.64,1.64,0,0,0-.32.56A1.83,1.83,0,0,0,329.2,72.3Z"/><path class="cls-1" d="M334.69,69.38a.47.47,0,0,1-.05-.39.33.33,0,0,1,.33-.15h1.39a.41.41,0,0,1,.25.07.44.44,0,0,1,.15.22l.21.65c.07.23.15.48.23.72l.24.74c.08.24.16.47.22.67l.18.54q.09.22.12.33l1.16-3.65a.42.42,0,0,1,.16-.23.44.44,0,0,1,.25-.06h1.29a.7.7,0,0,1,.24,0,.2.2,0,0,1,.11.11.24.24,0,0,1,0,.15,1.54,1.54,0,0,1-.05.17l-.6,1.47a2.92,2.92,0,0,0,.14.31c.08.15.16.32.25.51s.19.38.29.58.17.4.24.58l1.33-3.62a.56.56,0,0,1,.15-.23.34.34,0,0,1,.22-.06h1.2a.52.52,0,0,1,.36.09c.07.07.07.19,0,.37l-2.55,6.22a.4.4,0,0,1-.15.17.5.5,0,0,1-.29.07h-.58a.53.53,0,0,1-.31-.07.65.65,0,0,1-.15-.18l-1-2.47-1,2.48a.58.58,0,0,1-.14.17.33.33,0,0,1-.24.07h-.65a.58.58,0,0,1-.31-.06.4.4,0,0,1-.13-.18Z"/><path class="cls-1" d="M346.65,73.61a1.78,1.78,0,0,0,.32.24l.33.17.28.09.16,0H348l.31,0a.77.77,0,0,0,.25-.14.33.33,0,0,0,.11-.26.43.43,0,0,0-.06-.24.45.45,0,0,0-.18-.15,1.47,1.47,0,0,0-.28-.12l-.37-.11a4.68,4.68,0,0,1-1.08-.42,2.4,2.4,0,0,1-.68-.55,1.77,1.77,0,0,1-.34-.65,2.52,2.52,0,0,1-.1-.73,1.87,1.87,0,0,1,.18-.83,1.82,1.82,0,0,1,.51-.63,2.42,2.42,0,0,1,.8-.41,3.33,3.33,0,0,1,1-.15,3.24,3.24,0,0,1,.64.06,2.7,2.7,0,0,1,.57.18,2.74,2.74,0,0,1,.54.32,4.24,4.24,0,0,1,.51.46.42.42,0,0,1,.1.2c0,.07,0,.13-.13.21l-.4.34a4.67,4.67,0,0,0-.4.38.3.3,0,0,1-.13.06h-.13l-.11-.05a.47.47,0,0,1-.1-.1,1,1,0,0,0-.44-.28,1.54,1.54,0,0,0-.46-.08.84.84,0,0,0-.42.1.27.27,0,0,0-.15.28.28.28,0,0,0,.11.22.73.73,0,0,0,.23.13l.3.08a1.91,1.91,0,0,1,.28.07,7.73,7.73,0,0,1,.9.34,2.71,2.71,0,0,1,.71.46,1.78,1.78,0,0,1,.47.64,2.3,2.3,0,0,1,.16.92,2.12,2.12,0,0,1-.21,1,2.28,2.28,0,0,1-.59.72,2.75,2.75,0,0,1-.89.44,4.11,4.11,0,0,1-1.8.09,3.28,3.28,0,0,1-.68-.19,3.5,3.5,0,0,1-.62-.35,2.51,2.51,0,0,1-.52-.51.51.51,0,0,1-.09-.16.45.45,0,0,1,0-.16.33.33,0,0,1,0-.15.29.29,0,0,1,.1-.12l.7-.7a.24.24,0,0,1,.23-.08A.62.62,0,0,1,346.65,73.61Z"/><path class="cls-1" d="M357.73,74.93a3.82,3.82,0,0,1-1.08.69,3.38,3.38,0,0,1-1.27.25,3.51,3.51,0,0,1-1.41-.28,3.67,3.67,0,0,1-1.17-.75A3.53,3.53,0,0,1,352,73.7a3.35,3.35,0,0,1-.3-1.42,3.59,3.59,0,0,1,.12-.93,3.87,3.87,0,0,1,.33-.84,3.66,3.66,0,0,1,.52-.72,3.74,3.74,0,0,1,.69-.57,3.86,3.86,0,0,1,.83-.36,3.24,3.24,0,0,1,.94-.13,3.31,3.31,0,0,1,1.68.46,2.86,2.86,0,0,1,.68.52,3.18,3.18,0,0,1,.54.67,3.12,3.12,0,0,1,.34.77,2.7,2.7,0,0,1,.13.85c0,.19,0,.34,0,.46a.5.5,0,0,1-.09.29.36.36,0,0,1-.25.14,2.32,2.32,0,0,1-.52,0h-3.92a1.3,1.3,0,0,0,.22.59,1.48,1.48,0,0,0,.38.37,1.69,1.69,0,0,0,.46.2,2,2,0,0,0,.47.06,1.87,1.87,0,0,0,.4,0,2.62,2.62,0,0,0,.4-.11,3,3,0,0,0,.36-.16,1.34,1.34,0,0,0,.26-.19.65.65,0,0,1,.15-.1.2.2,0,0,1,.13,0,.27.27,0,0,1,.14,0,1,1,0,0,1,.17.14l.58.66a.28.28,0,0,1,.07.13.36.36,0,0,1,0,.11.31.31,0,0,1-.06.19Zm-2.62-4.54a1.2,1.2,0,0,0-.42.08,2.06,2.06,0,0,0-.37.23A1.88,1.88,0,0,0,354,71a2.06,2.06,0,0,0-.23.37h2.79a3,3,0,0,0-.25-.4,1.52,1.52,0,0,0-.31-.31,1.22,1.22,0,0,0-.39-.21A1.37,1.37,0,0,0,355.11,70.39Z"/><path class="cls-1" d="M362.63,69.38a.43.43,0,0,1,0-.39c0-.1.15-.15.32-.15h1.4a.4.4,0,0,1,.24.07.44.44,0,0,1,.15.22c.07.19.13.41.21.65s.15.48.23.72l.24.74.23.67a5.66,5.66,0,0,0,.18.54c0,.15.09.26.11.33l1.16-3.65a.48.48,0,0,1,.16-.23.44.44,0,0,1,.25-.06h1.29a.7.7,0,0,1,.24,0,.2.2,0,0,1,.11.11.24.24,0,0,1,0,.15,1.54,1.54,0,0,1-.05.17l-.6,1.47c0,.06.07.17.15.31l.24.51c.1.18.19.38.29.58s.18.4.24.58l1.34-3.62a.48.48,0,0,1,.14-.23.34.34,0,0,1,.22-.06h1.21a.56.56,0,0,1,.36.09c.06.07.06.19,0,.37l-2.56,6.22a.4.4,0,0,1-.15.17.48.48,0,0,1-.29.07h-.57a.49.49,0,0,1-.31-.07.55.55,0,0,1-.16-.18l-1-2.47-1,2.48a.79.79,0,0,1-.14.17.37.37,0,0,1-.25.07h-.65a.6.6,0,0,1-.31-.06.4.4,0,0,1-.13-.18Z"/><path class="cls-1" d="M379,74.93a3.82,3.82,0,0,1-1.08.69,3.38,3.38,0,0,1-1.27.25,3.58,3.58,0,0,1-1.41-.28,3.62,3.62,0,0,1-1.16-.75,3.56,3.56,0,0,1-.8-1.14,3.34,3.34,0,0,1-.29-1.42,4.08,4.08,0,0,1,.11-.93,3.44,3.44,0,0,1,.34-.84,3.29,3.29,0,0,1,.52-.72,3.18,3.18,0,0,1,.69-.57,3.65,3.65,0,0,1,.83-.36,3.19,3.19,0,0,1,.94-.13,3.28,3.28,0,0,1,.88.12,3.45,3.45,0,0,1,1.48.86,3.51,3.51,0,0,1,.88,1.44,3,3,0,0,1,.12.85c0,.19,0,.34,0,.46a.5.5,0,0,1-.08.29.39.39,0,0,1-.25.14,2.37,2.37,0,0,1-.52,0H375a1.43,1.43,0,0,0,.22.59,1.37,1.37,0,0,0,.39.37,1.57,1.57,0,0,0,.46.2,1.94,1.94,0,0,0,.46.06,2,2,0,0,0,.41,0,3,3,0,0,0,.4-.11l.35-.16a1.09,1.09,0,0,0,.26-.19l.15-.1a.22.22,0,0,1,.13,0,.3.3,0,0,1,.15,0,.94.94,0,0,1,.16.14l.58.66a.31.31,0,0,1,.08.13.37.37,0,0,1,0,.11.31.31,0,0,1-.06.19A.62.62,0,0,1,379,74.93Zm-2.62-4.54a1.15,1.15,0,0,0-.41.08,1.76,1.76,0,0,0-.37.23,1.94,1.94,0,0,0-.32.32,1.57,1.57,0,0,0-.22.37h2.78a2.26,2.26,0,0,0-.25-.4,1.43,1.43,0,0,0-.69-.52A1.39,1.39,0,0,0,376.42,70.39Z"/><path class="cls-1" d="M382.9,75.34l-.09.18a.4.4,0,0,1-.07.13.25.25,0,0,1-.1.08.35.35,0,0,1-.16,0H381.4c-.29,0-.44-.14-.44-.42V67.2a.45.45,0,0,1,.13-.3.38.38,0,0,1,.13-.09l.14,0h1.24a.45.45,0,0,1,.33.12.41.41,0,0,1,.12.3v2.26a2.35,2.35,0,0,1,.33-.3,1.76,1.76,0,0,1,.37-.23,3,3,0,0,1,.45-.15,2.39,2.39,0,0,1,.55,0,3.27,3.27,0,0,1,2.44,1,3.53,3.53,0,0,1,.7,1.13,4.1,4.1,0,0,1,0,2.82,3.53,3.53,0,0,1-.7,1.13,3.23,3.23,0,0,1-1.08.77,3.37,3.37,0,0,1-1.36.27,1.83,1.83,0,0,1-.53-.07,3.41,3.41,0,0,1-.48-.18,3.21,3.21,0,0,1-.41-.26c-.13-.1-.24-.2-.34-.29Zm3.28-3a1.83,1.83,0,0,0-.11-.66,1.64,1.64,0,0,0-.32-.56,1.66,1.66,0,0,0-.49-.38,1.55,1.55,0,0,0-.65-.14,1.72,1.72,0,0,0-.68.14,1.88,1.88,0,0,0-.54.38,1.92,1.92,0,0,0-.36.56,1.65,1.65,0,0,0-.13.66v.08a1.72,1.72,0,0,0,.15.64,1.64,1.64,0,0,0,.37.52,1.75,1.75,0,0,0,.53.35,1.8,1.8,0,0,0,.66.12,1.54,1.54,0,0,0,.65-.13,1.6,1.6,0,0,0,.49-.36,1.55,1.55,0,0,0,.32-.54A1.9,1.9,0,0,0,386.18,72.3Z"/><path class="cls-1" d="M390.28,73.61a1.49,1.49,0,0,0,.32.24,2.59,2.59,0,0,0,.33.17l.28.09.16,0h.26l.31,0a.72.72,0,0,0,.26-.14.33.33,0,0,0,.1-.26.43.43,0,0,0-.06-.24.5.5,0,0,0-.17-.15,1.47,1.47,0,0,0-.28-.12l-.38-.11a4.77,4.77,0,0,1-1.07-.42,2.4,2.4,0,0,1-.68-.55,1.77,1.77,0,0,1-.34-.65,2.52,2.52,0,0,1-.1-.73,1.87,1.87,0,0,1,.18-.83,1.82,1.82,0,0,1,.51-.63,2.42,2.42,0,0,1,.8-.41,3.55,3.55,0,0,1,1.67-.09,2.7,2.7,0,0,1,.57.18,2.67,2.67,0,0,1,.53.32,4.29,4.29,0,0,1,.52.46.32.32,0,0,1,.09.2.31.31,0,0,1-.12.21l-.41.34-.4.38a.22.22,0,0,1-.13.06h-.12l-.12-.05-.1-.1a.92.92,0,0,0-.43-.28,1.59,1.59,0,0,0-.46-.08.81.81,0,0,0-.42.1.27.27,0,0,0-.15.28.28.28,0,0,0,.11.22.73.73,0,0,0,.23.13l.29.08.29.07a7.73,7.73,0,0,1,.9.34,2.71,2.71,0,0,1,.71.46,1.75,1.75,0,0,1,.46.64,2.29,2.29,0,0,1,.17.92,2,2,0,0,1-.22,1,2.15,2.15,0,0,1-.59.72,2.65,2.65,0,0,1-.89.44,3.92,3.92,0,0,1-1.11.15,4,4,0,0,1-.68-.06,3.11,3.11,0,0,1-.68-.19,3.18,3.18,0,0,1-.62-.35,2.29,2.29,0,0,1-.52-.51.51.51,0,0,1-.09-.16.45.45,0,0,1,0-.16.33.33,0,0,1,0-.15.23.23,0,0,1,.1-.12l.7-.7a.24.24,0,0,1,.23-.08A.69.69,0,0,1,390.28,73.61Z"/><path class="cls-1" d="M395.55,66.5a.41.41,0,0,1,.1-.32.43.43,0,0,1,.3-.1h1.27a.5.5,0,0,1,.31.1.41.41,0,0,1,.11.32v1.07a.39.39,0,0,1,0,.14.55.55,0,0,1-.08.15.69.69,0,0,1-.13.11.41.41,0,0,1-.18,0H396c-.27,0-.4-.15-.4-.45Zm0,2.76a.45.45,0,0,1,.1-.3.36.36,0,0,1,.3-.12h1.25a.35.35,0,0,1,.14,0,.55.55,0,0,1,.15.08.76.76,0,0,1,.11.14.33.33,0,0,1,0,.17v6.08a.38.38,0,0,1-.11.31.49.49,0,0,1-.33.11H396c-.27,0-.4-.14-.4-.42Z"/><path class="cls-1" d="M399.37,67.76a.32.32,0,0,1,.11-.26,1.58,1.58,0,0,1,.32-.16l1.24-.43h.1a.31.31,0,0,1,.27.11.68.68,0,0,1,.06.31v1.5h.75a.37.37,0,0,1,.39.41V70.3a.45.45,0,0,1-.11.33.39.39,0,0,1-.28.11h-.75v4.6a.39.39,0,0,1-.12.31.49.49,0,0,1-.33.11h-1.23a.37.37,0,0,1-.42-.42v-4.6h-.57c-.28,0-.42-.15-.42-.44V69.24a.37.37,0,0,1,.42-.41h.57Z"/><path class="cls-1" d="M409.22,74.93a3.77,3.77,0,0,1-1.07.69,3.42,3.42,0,0,1-1.27.25,3.75,3.75,0,0,1-2.58-1,3.56,3.56,0,0,1-.8-1.14,3.5,3.5,0,0,1-.29-1.42,4.08,4.08,0,0,1,.11-.93,3.44,3.44,0,0,1,.34-.84,3.66,3.66,0,0,1,.52-.72,3.74,3.74,0,0,1,.69-.57,3.65,3.65,0,0,1,.83-.36,3.24,3.24,0,0,1,.94-.13,3.28,3.28,0,0,1,.88.12,3.32,3.32,0,0,1,.8.34,3.07,3.07,0,0,1,.68.52,3.18,3.18,0,0,1,.54.67,3.54,3.54,0,0,1,.34.77A3,3,0,0,1,410,72v.46a.59.59,0,0,1-.09.29.36.36,0,0,1-.25.14,2.32,2.32,0,0,1-.52,0h-3.93a1.43,1.43,0,0,0,.22.59,1.37,1.37,0,0,0,.39.37,1.57,1.57,0,0,0,.46.2,1.94,1.94,0,0,0,.46.06,1.9,1.9,0,0,0,.41,0,2.62,2.62,0,0,0,.4-.11,2.29,2.29,0,0,0,.35-.16.92.92,0,0,0,.26-.19l.15-.1a.22.22,0,0,1,.13,0,.3.3,0,0,1,.15,0,1.53,1.53,0,0,1,.17.14l.57.66a.31.31,0,0,1,.08.13.36.36,0,0,1,0,.11.31.31,0,0,1-.06.19A.67.67,0,0,1,409.22,74.93Zm-2.62-4.54a1.15,1.15,0,0,0-.41.08,1.76,1.76,0,0,0-.37.23,1.57,1.57,0,0,0-.31.32,1.62,1.62,0,0,0-.23.37h2.78a3,3,0,0,0-.24-.4,1.82,1.82,0,0,0-.31-.31,1.22,1.22,0,0,0-.39-.21A1.39,1.39,0,0,0,406.6,70.39Z"/><path class="cls-1" d="M412.18,73.61a1.49,1.49,0,0,0,.32.24,2.59,2.59,0,0,0,.33.17l.28.09.16,0h.26l.31,0a.68.68,0,0,0,.25-.14.33.33,0,0,0,.11-.26.43.43,0,0,0-.06-.24.5.5,0,0,0-.17-.15,1.47,1.47,0,0,0-.28-.12l-.38-.11a5.07,5.07,0,0,1-1.08-.42,2.5,2.5,0,0,1-.67-.55,1.79,1.79,0,0,1-.35-.65,2.92,2.92,0,0,1-.09-.73,1.87,1.87,0,0,1,.18-.83,1.82,1.82,0,0,1,.51-.63,2.37,2.37,0,0,1,.79-.41,3.59,3.59,0,0,1,1.68-.09,2.7,2.7,0,0,1,.57.18,2.67,2.67,0,0,1,.53.32,5.21,5.21,0,0,1,.52.46.32.32,0,0,1,.09.2.31.31,0,0,1-.12.21l-.41.34c-.13.11-.26.24-.4.38a.25.25,0,0,1-.13.06h-.12l-.12-.05a.47.47,0,0,1-.1-.1.92.92,0,0,0-.43-.28,1.65,1.65,0,0,0-.46-.08.88.88,0,0,0-.43.1.28.28,0,0,0-.14.28.27.27,0,0,0,.1.22.78.78,0,0,0,.24.13l.29.08.29.07a9.39,9.39,0,0,1,.9.34,2.71,2.71,0,0,1,.71.46,1.75,1.75,0,0,1,.46.64,2.29,2.29,0,0,1,.17.92,2,2,0,0,1-.22,1,2.15,2.15,0,0,1-.59.72,2.75,2.75,0,0,1-.89.44,3.92,3.92,0,0,1-1.11.15,4.2,4.2,0,0,1-.69-.06,3.19,3.19,0,0,1-.67-.19,2.91,2.91,0,0,1-.62-.35,2.55,2.55,0,0,1-.53-.51.51.51,0,0,1-.09-.16.44.44,0,0,1,0-.16.33.33,0,0,1,0-.15.27.27,0,0,1,.09-.12l.71-.7a.24.24,0,0,1,.23-.08A.69.69,0,0,1,412.18,73.61Z"/></g></g></svg>